<svg xmlns="http://www.w3.org/2000/svg" xmlns:xlink="http://www.w3.org/1999/xlink" viewBox="0 0 1000 1000" width="1000" height="1000" preserveAspectRatio="xMidYMid meet" style="width: 100%; height: 100%; transform: translate3d(0px, 0px, 0px); content-visibility: visible;"><defs><clipPath id="__lottie_element_14"><rect width="1000" height="1000" x="0" y="0"></rect></clipPath></defs><g clip-path="url(#__lottie_element_14)"><g transform="matrix(1,0,0,1,171.70578002929688,932.9453125)" opacity="1" style="display: block;"><g opacity="1" transform="matrix(1,0,0,1,0,0)"><path stroke-linecap="round" stroke-linejoin="round" fill-opacity="0" stroke="#FFFFFF" stroke-opacity="1" stroke-width="4px" d=" M0.5,74 C0.5,74 0.5,113.5 0.5,113.5"></path></g></g><g transform="matrix(1,0,0,1,43.98311233520508,866.3973999023438)" opacity="1" style="display: block;"><g opacity="1" transform="matrix(1,0,0,1,0,0)"><path stroke-linecap="round" stroke-linejoin="round" fill-opacity="0" stroke="#FFFFFF" stroke-opacity="1" stroke-width="4px" d=" M0.5,74 C0.5,74 0.5,113.5 0.5,113.5"></path></g></g><g transform="matrix(1,0,0,1,970.0755615234375,871.9622192382812)" opacity="1" style="display: block;"><g opacity="1" transform="matrix(1,0,0,1,0,0)"><path stroke-linecap="round" stroke-linejoin="round" fill-opacity="0" stroke="#FFFFFF" stroke-opacity="1" stroke-width="4px" d=" M0.5,74 C0.5,74 0.5,113.5 0.5,113.5"></path></g></g><g transform="matrix(1,0,0,1,872.1217651367188,917.8697509765625)" opacity="1" style="display: block;"><g opacity="1" transform="matrix(1,0,0,1,0,0)"><path stroke-linecap="round" stroke-linejoin="round" fill-opacity="0" stroke="#FFFFFF" stroke-opacity="1" stroke-width="4px" d=" M0.5,74 C0.5,74 0.5,113.5 0.5,113.5"></path></g></g><g transform="matrix(1,0,0,1,1013.8529052734375,733.416015625)" opacity="1" style="display: block;"><g opacity="1" transform="matrix(1,0,0,1,0,0)"><path stroke-linecap="round" stroke-linejoin="round" fill-opacity="0" stroke="#FFFFFF" stroke-opacity="1" stroke-width="4px" d=" M0.5,74 C0.5,74 0.5,113.5 0.5,113.5"></path></g></g><g transform="matrix(1,0,0,1,934.8494873046875,778.416015625)" opacity="1" style="display: block;"><g opacity="1" transform="matrix(1,0,0,1,0,0)"><path stroke-linecap="round" stroke-linejoin="round" fill-opacity="0" stroke="#FFFFFF" stroke-opacity="1" stroke-width="4px" d=" M0.5,74 C0.5,74 0.5,113.5 0.5,113.5"></path></g></g><g transform="matrix(1,0,0,1,838.961669921875,818.0958251953125)" opacity="1" style="display: block;"><g opacity="1" transform="matrix(1,0,0,1,0,0)"><path stroke-linecap="round" stroke-linejoin="round" fill-opacity="0" stroke="#FFFFFF" stroke-opacity="1" stroke-width="4px" d=" M0.5,74 C0.5,74 0.5,113.5 0.5,113.5"></path></g></g><g transform="matrix(1,0,0,1,734.392333984375,845.7987670898438)" opacity="1" style="display: block;"><g opacity="1" transform="matrix(1,0,0,1,0,0)"><path stroke-linecap="round" stroke-linejoin="round" fill-opacity="0" stroke="#FFFFFF" stroke-opacity="1" stroke-width="4px" d=" M0.5,74 C0.5,74 0.5,113.5 0.5,113.5"></path></g></g><g transform="matrix(1,0,0,1,623.55078125,863.001708984375)" opacity="1" style="display: block;"><g opacity="1" transform="matrix(1,0,0,1,0,0)"><path stroke-linecap="round" stroke-linejoin="round" fill-opacity="0" stroke="#FFFFFF" stroke-opacity="1" stroke-width="4px" d=" M0.5,74 C0.5,74 0.5,113.5 0.5,113.5"></path></g></g><g transform="matrix(1,0,0,1,509.6415100097656,870.5231323242188)" opacity="1" style="display: block;"><g opacity="1" transform="matrix(1,0,0,1,0,0)"><path stroke-linecap="round" stroke-linejoin="round" fill-opacity="0" stroke="#FFFFFF" stroke-opacity="1" stroke-width="4px" d=" M0.5,74 C0.5,74 0.5,113.5 0.5,113.5"></path></g></g><g transform="matrix(1,0,0,1,395.9599914550781,866.6798095703125)" opacity="1" style="display: block;"><g opacity="1" transform="matrix(1,0,0,1,0,0)"><path stroke-linecap="round" stroke-linejoin="round" fill-opacity="0" stroke="#FFFFFF" stroke-opacity="1" stroke-width="4px" d=" M0.5,74 C0.5,74 0.5,113.5 0.5,113.5"></path></g></g><g transform="matrix(1,0,0,1,284.4831237792969,850.8151245117188)" opacity="1" style="display: block;"><g opacity="1" transform="matrix(1,0,0,1,0,0)"><path stroke-linecap="round" stroke-linejoin="round" fill-opacity="0" stroke="#FFFFFF" stroke-opacity="1" stroke-width="4px" d=" M0.5,74 C0.5,74 0.5,113.5 0.5,113.5"></path></g></g><g transform="matrix(1,0,0,1,284.4831237792969,850.8151245117188)" opacity="1" style="display: block;"><g opacity="1" transform="matrix(1,0,0,1,0,0)"><path stroke-linecap="round" stroke-linejoin="round" fill-opacity="0" stroke="#FFFFFF" stroke-opacity="1" stroke-width="4px" d=" M0.5,74 C0.5,74 0.5,113.5 0.5,113.5"></path></g></g><g transform="matrix(1,0,0,1,177.75706481933594,824.6764526367188)" opacity="1" style="display: block;"><g opacity="1" transform="matrix(1,0,0,1,0,0)"><path stroke-linecap="round" stroke-linejoin="round" fill-opacity="0" stroke="#FFFFFF" stroke-opacity="1" stroke-width="4px" d=" M0.5,74 C0.5,74 0.5,113.5 0.5,113.5"></path></g></g><g transform="matrix(1,0,0,1,79.8495101928711,785.583984375)" opacity="1" style="display: block;"><g opacity="1" transform="matrix(1,0,0,1,0,0)"><path stroke-linecap="round" stroke-linejoin="round" fill-opacity="0" stroke="#FFFFFF" stroke-opacity="1" stroke-width="4px" d=" M0.5,74 C0.5,74 0.5,113.5 0.5,113.5"></path></g></g><g transform="matrix(1,0,0,1,-9.285778045654297,740.583984375)" opacity="1" style="display: block;"><g opacity="1" transform="matrix(1,0,0,1,0,0)"><path stroke-linecap="round" stroke-linejoin="round" fill-opacity="0" stroke="#FFFFFF" stroke-opacity="1" stroke-width="4px" d=" M0.5,74 C0.5,74 0.5,113.5 0.5,113.5"></path></g></g><g transform="matrix(1,0,0,1,186.47067260742188,-120.86978149414062)" opacity="1" style="display: block;"><g opacity="1" transform="matrix(1,0,0,1,0,0)"><path stroke-linecap="round" stroke-linejoin="round" fill-opacity="0" stroke="#FFFFFF" stroke-opacity="1" stroke-width="4px" d=" M0.5,74 C0.5,74 0.5,113.5 0.5,113.5"></path></g></g><g transform="matrix(1,0,0,1,79.9937744140625,-81.16515350341797)" opacity="1" style="display: block;"><g opacity="1" transform="matrix(1,0,0,1,0,0)"><path stroke-linecap="round" stroke-linejoin="round" fill-opacity="0" stroke="#FFFFFF" stroke-opacity="1" stroke-width="4px" d=" M0.5,74 C0.5,74 0.5,113.5 0.5,113.5"></path></g></g><g transform="matrix(1,0,0,1,-23.0755558013916,-38.41600036621094)" opacity="1" style="display: block;"><g opacity="1" transform="matrix(1,0,0,1,0,0)"><path stroke-linecap="round" stroke-linejoin="round" fill-opacity="0" stroke="#FFFFFF" stroke-opacity="1" stroke-width="4px" d=" M0.5,74 C0.5,74 0.5,113.5 0.5,113.5"></path></g></g><g transform="matrix(1,0,0,1,-33.07555389404297,90.4453353881836)" opacity="1" style="display: block;"><g opacity="1" transform="matrix(1,0,0,1,0,0)"><path stroke-linecap="round" stroke-linejoin="round" fill-opacity="0" stroke="#FFFFFF" stroke-opacity="1" stroke-width="4px" d=" M0.5,74 C0.5,74 0.5,113.5 0.5,113.5"></path></g></g><g transform="matrix(1,0,0,1,63.445865631103516,36.37937927246094)" opacity="1" style="display: block;"><g opacity="1" transform="matrix(1,0,0,1,0,0)"><path stroke-linecap="round" stroke-linejoin="round" fill-opacity="0" stroke="#FFFFFF" stroke-opacity="1" stroke-width="4px" d=" M0.5,74 C0.5,74 0.5,113.5 0.5,113.5"></path></g></g><g transform="matrix(1,0,0,1,159.6521759033203,-3.391200065612793)" opacity="1" style="display: block;"><g opacity="1" transform="matrix(1,0,0,1,0,0)"><path stroke-linecap="round" stroke-linejoin="round" fill-opacity="0" stroke="#FFFFFF" stroke-opacity="1" stroke-width="4px" d=" M0.5,74 C0.5,74 0.5,113.5 0.5,113.5"></path></g></g><g transform="matrix(1,0,0,1,264.6983947753906,-31.617244720458984)" opacity="1" style="display: block;"><g opacity="1" transform="matrix(1,0,0,1,0,0)"><path stroke-linecap="round" stroke-linejoin="round" fill-opacity="0" stroke="#FFFFFF" stroke-opacity="1" stroke-width="4px" d=" M0.5,74 C0.5,74 0.5,113.5 0.5,113.5"></path></g></g><g transform="matrix(1,0,0,1,375.5631103515625,-51.638668060302734)" opacity="1" style="display: block;"><g opacity="1" transform="matrix(1,0,0,1,0,0)"><path stroke-linecap="round" stroke-linejoin="round" fill-opacity="0" stroke="#FFFFFF" stroke-opacity="1" stroke-width="4px" d=" M0.5,74 C0.5,74 0.5,113.5 0.5,113.5"></path></g></g><g transform="matrix(1,0,0,1,490.5631103515625,-59.06764602661133)" opacity="1" style="display: block;"><g opacity="1" transform="matrix(1,0,0,1,0,0)"><path stroke-linecap="round" stroke-linejoin="round" fill-opacity="0" stroke="#FFFFFF" stroke-opacity="1" stroke-width="4px" d=" M0.5,74 C0.5,74 0.5,113.5 0.5,113.5"></path></g></g><g transform="matrix(1,0,0,1,604.3353881835938,-51.27057647705078)" opacity="1" style="display: block;"><g opacity="1" transform="matrix(1,0,0,1,0,0)"><path stroke-linecap="round" stroke-linejoin="round" fill-opacity="0" stroke="#FFFFFF" stroke-opacity="1" stroke-width="4px" d=" M0.5,74 C0.5,74 0.5,113.5 0.5,113.5"></path></g></g><g transform="matrix(1,0,0,1,715.5169067382812,-34.81510925292969)" opacity="1" style="display: block;"><g opacity="1" transform="matrix(1,0,0,1,0,0)"><path stroke-linecap="round" stroke-linejoin="round" fill-opacity="0" stroke="#FFFFFF" stroke-opacity="1" stroke-width="4px" d=" M0.5,74 C0.5,74 0.5,113.5 0.5,113.5"></path></g></g><g transform="matrix(1,0,0,1,821.4244384765625,-8.676444053649902)" opacity="1" style="display: block;"><g opacity="1" transform="matrix(1,0,0,1,0,0)"><path stroke-linecap="round" stroke-linejoin="round" fill-opacity="0" stroke="#FFFFFF" stroke-opacity="1" stroke-width="4px" d=" M0.5,74 C0.5,74 0.5,113.5 0.5,113.5"></path></g></g><g transform="matrix(1,0,0,1,918.5597534179688,29.18826675415039)" opacity="1" style="display: block;"><g opacity="1" transform="matrix(1,0,0,1,0,0)"><path stroke-linecap="round" stroke-linejoin="round" fill-opacity="0" stroke="#FFFFFF" stroke-opacity="1" stroke-width="4px" d=" M0.5,74 C0.5,74 0.5,113.5 0.5,113.5"></path></g></g><g transform="matrix(1,0,0,1,1010.3319702148438,74.46221923828125)" opacity="1" style="display: block;"><g opacity="1" transform="matrix(1,0,0,1,0,0)"><path stroke-linecap="round" stroke-linejoin="round" fill-opacity="0" stroke="#FFFFFF" stroke-opacity="1" stroke-width="4px" d=" M0.5,74 C0.5,74 0.5,113.5 0.5,113.5"></path></g></g><g transform="matrix(1,0,0,1,996.2395629882812,-43.491554260253906)" opacity="1" style="display: block;"><g opacity="1" transform="matrix(1,0,0,1,0,0)"><path stroke-linecap="round" stroke-linejoin="round" fill-opacity="0" stroke="#FFFFFF" stroke-opacity="1" stroke-width="4px" d=" M0.5,74 C0.5,74 0.5,113.5 0.5,113.5"></path></g></g><g transform="matrix(1,0,0,1,899.6984252929688,-89.03946685791016)" opacity="1" style="display: block;"><g opacity="1" transform="matrix(1,0,0,1,0,0)"><path stroke-linecap="round" stroke-linejoin="round" fill-opacity="0" stroke="#FFFFFF" stroke-opacity="1" stroke-width="4px" d=" M0.5,74 C0.5,74 0.5,113.5 0.5,113.5"></path></g></g><g transform="matrix(1,0,0,1,778.7017822265625,-125.67644500732422)" opacity="1" style="display: block;"><g opacity="1" transform="matrix(1,0,0,1,0,0)"><path stroke-linecap="round" stroke-linejoin="round" fill-opacity="0" stroke="#FFFFFF" stroke-opacity="1" stroke-width="4px" d=" M0.5,74 C0.5,74 0.5,113.5 0.5,113.5"></path></g></g><g transform="matrix(1,0,0,1,-3.760444402694702,214.39910888671875)" opacity="1" style="display: block;"><g opacity="1" transform="matrix(1,0,0,1,0,0)"><path stroke-linecap="round" stroke-linejoin="round" fill-opacity="0" stroke="#FFFFFF" stroke-opacity="1" stroke-width="4px" d=" M0.5,74 C0.5,74 0.5,113.5 0.5,113.5"></path></g></g><g transform="matrix(1,0,0,1,72.9655990600586,155.53778076171875)" opacity="1" style="display: block;"><g opacity="1" transform="matrix(1,0,0,1,0,0)"><path stroke-linecap="round" stroke-linejoin="round" fill-opacity="0" stroke="#FFFFFF" stroke-opacity="1" stroke-width="4px" d=" M0.5,74 C0.5,74 0.5,113.5 0.5,113.5"></path></g></g><g transform="matrix(1,0,0,1,150.28578186035156,109.63021850585938)" opacity="1" style="display: block;"><g opacity="1" transform="matrix(1,0,0,1,0,0)"><path stroke-linecap="round" stroke-linejoin="round" fill-opacity="0" stroke="#FFFFFF" stroke-opacity="1" stroke-width="4px" d=" M0.5,74 C0.5,74 0.5,113.5 0.5,113.5"></path></g></g><g transform="matrix(1,0,0,1,238.96897888183594,75.76889038085938)" opacity="1" style="display: block;"><g opacity="1" transform="matrix(1,0,0,1,0,0)"><path stroke-linecap="round" stroke-linejoin="round" fill-opacity="0" stroke="#FFFFFF" stroke-opacity="1" stroke-width="4px" d=" M0.5,74 C0.5,74 0.5,113.5 0.5,113.5"></path></g></g><g transform="matrix(1,0,0,1,335.4244384765625,52.81510925292969)" opacity="1" style="display: block;"><g opacity="1" transform="matrix(1,0,0,1,0,0)"><path stroke-linecap="round" stroke-linejoin="round" fill-opacity="0" stroke="#FFFFFF" stroke-opacity="1" stroke-width="4px" d=" M0.5,74 C0.5,74 0.5,113.5 0.5,113.5"></path></g></g><g transform="matrix(1,0,0,1,437.4706726074219,38.95377731323242)" opacity="1" style="display: block;"><g opacity="1" transform="matrix(1,0,0,1,0,0)"><path stroke-linecap="round" stroke-linejoin="round" fill-opacity="0" stroke="#FFFFFF" stroke-opacity="1" stroke-width="4px" d=" M0.5,74 C0.5,74 0.5,113.5 0.5,113.5"></path></g></g><g transform="matrix(1,0,0,1,542.0614013671875,38.455467224121094)" opacity="1" style="display: block;"><g opacity="1" transform="matrix(1,0,0,1,0,0)"><path stroke-linecap="round" stroke-linejoin="round" fill-opacity="0" stroke="#FFFFFF" stroke-opacity="1" stroke-width="4px" d=" M0.5,74 C0.5,74 0.5,113.5 0.5,113.5"></path></g></g><g transform="matrix(1,0,0,1,645.242919921875,48.138668060302734)" opacity="1" style="display: block;"><g opacity="1" transform="matrix(1,0,0,1,0,0)"><path stroke-linecap="round" stroke-linejoin="round" fill-opacity="0" stroke="#FFFFFF" stroke-opacity="1" stroke-width="4px" d=" M0.5,74 C0.5,74 0.5,113.5 0.5,113.5"></path></g></g><g transform="matrix(1,0,0,1,743.5597534179688,69.27733612060547)" opacity="1" style="display: block;"><g opacity="1" transform="matrix(1,0,0,1,0,0)"><path stroke-linecap="round" stroke-linejoin="round" fill-opacity="0" stroke="#FFFFFF" stroke-opacity="1" stroke-width="4px" d=" M0.5,74 C0.5,74 0.5,113.5 0.5,113.5"></path></g></g><g transform="matrix(1,0,0,1,833.2857666015625,103.36978149414062)" opacity="1" style="display: block;"><g opacity="1" transform="matrix(1,0,0,1,0,0)"><path stroke-linecap="round" stroke-linejoin="round" fill-opacity="0" stroke="#FFFFFF" stroke-opacity="1" stroke-width="4px" d=" M0.5,74 C0.5,74 0.5,113.5 0.5,113.5"></path></g></g><g transform="matrix(1,0,0,1,912.965576171875,147.052978515625)" opacity="1" style="display: block;"><g opacity="1" transform="matrix(1,0,0,1,0,0)"><path stroke-linecap="round" stroke-linejoin="round" fill-opacity="0" stroke="#FFFFFF" stroke-opacity="1" stroke-width="4px" d=" M0.5,74 C0.5,74 0.5,113.5 0.5,113.5"></path></g></g><g transform="matrix(1,0,0,1,984.8748168945312,206.67190551757812)" opacity="1" style="display: block;"><g opacity="1" transform="matrix(1,0,0,1,0,0)"><path stroke-linecap="round" stroke-linejoin="round" fill-opacity="0" stroke="#FFFFFF" stroke-opacity="1" stroke-width="4px" d=" M0.5,74 C0.5,74 0.5,113.5 0.5,113.5"></path></g></g><g transform="matrix(1,0,0,1,1005.22265625,592.3235473632812)" opacity="1" style="display: block;"><g opacity="1" transform="matrix(1,0,0,1,0,0)"><path stroke-linecap="round" stroke-linejoin="round" fill-opacity="0" stroke="#FFFFFF" stroke-opacity="1" stroke-width="4px" d=" M0.5,74 C0.5,74 0.5,113.5 0.5,113.5"></path></g></g><g transform="matrix(1,0,0,1,960.8991088867188,633.4622192382812)" opacity="1" style="display: block;"><g opacity="1" transform="matrix(1,0,0,1,0,0)"><path stroke-linecap="round" stroke-linejoin="round" fill-opacity="0" stroke="#FFFFFF" stroke-opacity="1" stroke-width="4px" d=" M0.5,74 C0.5,74 0.5,113.5 0.5,113.5"></path></g></g><g transform="matrix(1,0,0,1,889.7604370117188,681.416015625)" opacity="1" style="display: block;"><g opacity="1" transform="matrix(1,0,0,1,0,0)"><path stroke-linecap="round" stroke-linejoin="round" fill-opacity="0" stroke="#FFFFFF" stroke-opacity="1" stroke-width="4px" d=" M0.5,74 C0.5,74 0.5,113.5 0.5,113.5"></path></g></g><g transform="matrix(1,0,0,1,889.7604370117188,681.416015625)" opacity="1" style="display: block;"><g opacity="1" transform="matrix(1,0,0,1,0,0)"><path stroke-linecap="round" stroke-linejoin="round" fill-opacity="0" stroke="#FFFFFF" stroke-opacity="1" stroke-width="4px" d=" M0.5,74 C0.5,74 0.5,113.5 0.5,113.5"></path></g></g><g transform="matrix(1,0,0,1,805.6680297851562,722.3235473632812)" opacity="1" style="display: block;"><g opacity="1" transform="matrix(1,0,0,1,0,0)"><path stroke-linecap="round" stroke-linejoin="round" fill-opacity="0" stroke="#FFFFFF" stroke-opacity="1" stroke-width="4px" d=" M0.5,74 C0.5,74 0.5,113.5 0.5,113.5"></path></g></g><g transform="matrix(1,0,0,1,712.8032836914062,752.6172485351562)" opacity="1" style="display: block;"><g opacity="1" transform="matrix(1,0,0,1,0,0)"><path stroke-linecap="round" stroke-linejoin="round" fill-opacity="0" stroke="#FFFFFF" stroke-opacity="1" stroke-width="4px" d=" M0.5,74 C0.5,74 0.5,113.5 0.5,113.5"></path></g></g><g transform="matrix(1,0,0,1,613.757080078125,771.001708984375)" opacity="1" style="display: block;"><g opacity="1" transform="matrix(1,0,0,1,0,0)"><path stroke-linecap="round" stroke-linejoin="round" fill-opacity="0" stroke="#FFFFFF" stroke-opacity="1" stroke-width="4px" d=" M0.5,74 C0.5,74 0.5,113.5 0.5,113.5"></path></g></g><g transform="matrix(1,0,0,1,510.5293273925781,777.9092407226562)" opacity="1" style="display: block;"><g opacity="1" transform="matrix(1,0,0,1,0,0)"><path stroke-linecap="round" stroke-linejoin="round" fill-opacity="0" stroke="#FFFFFF" stroke-opacity="1" stroke-width="4px" d=" M0.5,74 C0.5,74 0.5,113.5 0.5,113.5"></path></g></g><g transform="matrix(1,0,0,1,405.73394775390625,773.3844604492188)" opacity="1" style="display: block;"><g opacity="1" transform="matrix(1,0,0,1,0,0)"><path stroke-linecap="round" stroke-linejoin="round" fill-opacity="0" stroke="#FFFFFF" stroke-opacity="1" stroke-width="4px" d=" M0.5,74 C0.5,74 0.5,113.5 0.5,113.5"></path></g></g><g transform="matrix(1,0,0,1,304.0986633300781,753.72265625)" opacity="1" style="display: block;"><g opacity="1" transform="matrix(1,0,0,1,0,0)"><path stroke-linecap="round" stroke-linejoin="round" fill-opacity="0" stroke="#FFFFFF" stroke-opacity="1" stroke-width="4px" d=" M0.5,74 C0.5,74 0.5,113.5 0.5,113.5"></path></g></g><g transform="matrix(1,0,0,1,209.66799926757812,723.72265625)" opacity="1" style="display: block;"><g opacity="1" transform="matrix(1,0,0,1,0,0)"><path stroke-linecap="round" stroke-linejoin="round" fill-opacity="0" stroke="#FFFFFF" stroke-opacity="1" stroke-width="4px" d=" M0.5,74 C0.5,74 0.5,113.5 0.5,113.5"></path></g></g><g transform="matrix(1,0,0,1,124.16968536376953,689.6302490234375)" opacity="1" style="display: block;"><g opacity="1" transform="matrix(1,0,0,1,0,0)"><path stroke-linecap="round" stroke-linejoin="round" fill-opacity="0" stroke="#FFFFFF" stroke-opacity="1" stroke-width="4px" d=" M0.5,74 C0.5,74 0.5,113.5 0.5,113.5"></path></g></g><g transform="matrix(1,0,0,1,50.899112701416016,643.4915771484375)" opacity="1" style="display: block;"><g opacity="1" transform="matrix(1,0,0,1,0,0)"><path stroke-linecap="round" stroke-linejoin="round" fill-opacity="0" stroke="#FFFFFF" stroke-opacity="1" stroke-width="4px" d=" M0.5,74 C0.5,74 0.5,113.5 0.5,113.5"></path></g></g><g transform="matrix(1,0,0,1,-12.054666519165039,586.4453125)" opacity="1" style="display: block;"><g opacity="1" transform="matrix(1,0,0,1,0,0)"><path stroke-linecap="round" stroke-linejoin="round" fill-opacity="0" stroke="#FFFFFF" stroke-opacity="1" stroke-width="4px" d=" M0.5,74 C0.5,74 0.5,113.5 0.5,113.5"></path></g></g><g transform="matrix(1,0,0,1,506.6679992675781,682.9092407226562)" opacity="1" style="display: block;"><g opacity="1" transform="matrix(1,0,0,1,0,0)"><path stroke-linecap="round" stroke-linejoin="round" fill-opacity="0" stroke="#FFFFFF" stroke-opacity="1" stroke-width="4px" d=" M0.5,74 C0.5,74 0.5,113.5 0.5,113.5"></path></g></g><g transform="matrix(1,0,0,1,416.6679992675781,679.4075317382812)" opacity="1" style="display: block;"><g opacity="1" transform="matrix(1,0,0,1,0,0)"><path stroke-linecap="round" stroke-linejoin="round" fill-opacity="0" stroke="#FFFFFF" stroke-opacity="1" stroke-width="4px" d=" M0.5,74 C0.5,74 0.5,113.5 0.5,113.5"></path></g></g><g transform="matrix(1,0,0,1,329.12347412109375,662.2457885742188)" opacity="1" style="display: block;"><g opacity="1" transform="matrix(1,0,0,1,0,0)"><path stroke-linecap="round" stroke-linejoin="round" fill-opacity="0" stroke="#FFFFFF" stroke-opacity="1" stroke-width="4px" d=" M0.5,74 C0.5,74 0.5,113.5 0.5,113.5"></path></g></g><g transform="matrix(1,0,0,1,249.62515258789062,631.6764526367188)" opacity="1" style="display: block;"><g opacity="1" transform="matrix(1,0,0,1,0,0)"><path stroke-linecap="round" stroke-linejoin="round" fill-opacity="0" stroke="#FFFFFF" stroke-opacity="1" stroke-width="4px" d=" M0.5,74 C0.5,74 0.5,113.5 0.5,113.5"></path></g></g><g transform="matrix(1,0,0,1,181.3314666748047,594.016357421875)" opacity="1" style="display: block;"><g opacity="1" transform="matrix(1,0,0,1,0,0)"><path stroke-linecap="round" stroke-linejoin="round" fill-opacity="0" stroke="#FFFFFF" stroke-opacity="1" stroke-width="4px" d=" M0.5,74 C0.5,74 0.5,113.5 0.5,113.5"></path></g></g><g transform="matrix(1,0,0,1,126.37937927246094,549.0377807617188)" opacity="1" style="display: block;"><g opacity="1" transform="matrix(1,0,0,1,0,0)"><path stroke-linecap="round" stroke-linejoin="round" fill-opacity="0" stroke="#FFFFFF" stroke-opacity="1" stroke-width="4px" d=" M0.5,74 C0.5,74 0.5,113.5 0.5,113.5"></path></g></g><g transform="matrix(1,0,0,1,88.04115295410156,496.9915466308594)" opacity="1" style="display: block;"><g opacity="1" transform="matrix(1,0,0,1,0,0)"><path stroke-linecap="round" stroke-linejoin="round" fill-opacity="0" stroke="#FFFFFF" stroke-opacity="1" stroke-width="4px" d=" M0.5,74 C0.5,74 0.5,113.5 0.5,113.5"></path></g></g><g transform="matrix(1,0,0,1,67.81680297851562,439.9453430175781)" opacity="1" style="display: block;"><g opacity="1" transform="matrix(1,0,0,1,0,0)"><path stroke-linecap="round" stroke-linejoin="round" fill-opacity="0" stroke="#FFFFFF" stroke-opacity="1" stroke-width="4px" d=" M0.5,74 C0.5,74 0.5,113.5 0.5,113.5"></path></g></g><g transform="matrix(1,0,0,1,66.59244537353516,381.9915466308594)" opacity="1" style="display: block;"><g opacity="1" transform="matrix(1,0,0,1,0,0)"><path stroke-linecap="round" stroke-linejoin="round" fill-opacity="0" stroke="#FFFFFF" stroke-opacity="1" stroke-width="4px" d=" M0.5,74 C0.5,74 0.5,113.5 0.5,113.5"></path></g></g><g transform="matrix(1,0,0,1,83.95884704589844,326.1730651855469)" opacity="1" style="display: block;"><g opacity="1" transform="matrix(1,0,0,1,0,0)"><path stroke-linecap="round" stroke-linejoin="round" fill-opacity="0" stroke="#FFFFFF" stroke-opacity="1" stroke-width="4px" d=" M0.5,74 C0.5,74 0.5,113.5 0.5,113.5"></path></g></g><g transform="matrix(1,0,0,1,119.32524108886719,271.8331604003906)" opacity="1" style="display: block;"><g opacity="1" transform="matrix(1,0,0,1,0,0)"><path stroke-linecap="round" stroke-linejoin="round" fill-opacity="0" stroke="#FFFFFF" stroke-opacity="1" stroke-width="4px" d=" M0.5,74 C0.5,74 0.5,113.5 0.5,113.5"></path></g></g><g transform="matrix(1,0,0,1,119.32524108886719,271.8331604003906)" opacity="1" style="display: block;"><g opacity="1" transform="matrix(1,0,0,1,0,0)"><path stroke-linecap="round" stroke-linejoin="round" fill-opacity="0" stroke="#FFFFFF" stroke-opacity="1" stroke-width="4px" d=" M0.5,74 C0.5,74 0.5,113.5 0.5,113.5"></path></g></g><g transform="matrix(1,0,0,1,171.05467224121094,225.63021850585938)" opacity="1" style="display: block;"><g opacity="1" transform="matrix(1,0,0,1,0,0)"><path stroke-linecap="round" stroke-linejoin="round" fill-opacity="0" stroke="#FFFFFF" stroke-opacity="1" stroke-width="4px" d=" M0.5,74 C0.5,74 0.5,113.5 0.5,113.5"></path></g></g><g transform="matrix(1,0,0,1,237.19332885742188,185.63021850585938)" opacity="1" style="display: block;"><g opacity="1" transform="matrix(1,0,0,1,0,0)"><path stroke-linecap="round" stroke-linejoin="round" fill-opacity="0" stroke="#FFFFFF" stroke-opacity="1" stroke-width="4px" d=" M0.5,74 C0.5,74 0.5,113.5 0.5,113.5"></path></g></g><g transform="matrix(1,0,0,1,237.19332885742188,185.63021850585938)" opacity="1" style="display: block;"><g opacity="1" transform="matrix(1,0,0,1,0,0)"><path stroke-linecap="round" stroke-linejoin="round" fill-opacity="0" stroke="#FFFFFF" stroke-opacity="1" stroke-width="4px" d=" M0.5,74 C0.5,74 0.5,113.5 0.5,113.5"></path></g></g><g transform="matrix(1,0,0,1,315.87652587890625,153.8151092529297)" opacity="1" style="display: block;"><g opacity="1" transform="matrix(1,0,0,1,0,0)"><path stroke-linecap="round" stroke-linejoin="round" fill-opacity="0" stroke="#FFFFFF" stroke-opacity="1" stroke-width="4px" d=" M0.5,74 C0.5,74 0.5,113.5 0.5,113.5"></path></g></g><g transform="matrix(1,0,0,1,402.3320007324219,135.861328125)" opacity="1" style="display: block;"><g opacity="1" transform="matrix(1,0,0,1,0,0)"><path stroke-linecap="round" stroke-linejoin="round" fill-opacity="0" stroke="#FFFFFF" stroke-opacity="1" stroke-width="4px" d=" M0.5,74 C0.5,74 0.5,113.5 0.5,113.5"></path></g></g><g transform="matrix(1,0,0,1,492.7412414550781,127)" opacity="1" style="display: block;"><g opacity="1" transform="matrix(1,0,0,1,0,0)"><path stroke-linecap="round" stroke-linejoin="round" fill-opacity="0" stroke="#FFFFFF" stroke-opacity="1" stroke-width="4px" d=" M0.5,74 C0.5,74 0.5,113.5 0.5,113.5"></path></g></g><g transform="matrix(1,0,0,1,583.3319702148438,133.138671875)" opacity="1" style="display: block;"><g opacity="1" transform="matrix(1,0,0,1,0,0)"><path stroke-linecap="round" stroke-linejoin="round" fill-opacity="0" stroke="#FFFFFF" stroke-opacity="1" stroke-width="4px" d=" M0.5,74 C0.5,74 0.5,113.5 0.5,113.5"></path></g></g><g transform="matrix(1,0,0,1,670.46728515625,152.23110961914062)" opacity="1" style="display: block;"><g opacity="1" transform="matrix(1,0,0,1,0,0)"><path stroke-linecap="round" stroke-linejoin="round" fill-opacity="0" stroke="#FFFFFF" stroke-opacity="1" stroke-width="4px" d=" M0.5,74 C0.5,74 0.5,113.5 0.5,113.5"></path></g></g><g transform="matrix(1,0,0,1,749.7841186523438,181.52818298339844)" opacity="1" style="display: block;"><g opacity="1" transform="matrix(1,0,0,1,0,0)"><path stroke-linecap="round" stroke-linejoin="round" fill-opacity="0" stroke="#FFFFFF" stroke-opacity="1" stroke-width="4px" d=" M0.5,74 C0.5,74 0.5,113.5 0.5,113.5"></path></g></g><g transform="matrix(1,0,0,1,818.0546875,219.27902221679688)" opacity="1" style="display: block;"><g opacity="1" transform="matrix(1,0,0,1,0,0)"><path stroke-linecap="round" stroke-linejoin="round" fill-opacity="0" stroke="#FFFFFF" stroke-opacity="1" stroke-width="4px" d=" M0.5,74 C0.5,74 0.5,113.5 0.5,113.5"></path></g></g><g transform="matrix(1,0,0,1,872.5298461914062,264.78070068359375)" opacity="1" style="display: block;"><g opacity="1" transform="matrix(1,0,0,1,0,0)"><path stroke-linecap="round" stroke-linejoin="round" fill-opacity="0" stroke="#FFFFFF" stroke-opacity="1" stroke-width="4px" d=" M0.5,74 C0.5,74 0.5,113.5 0.5,113.5"></path></g></g><g transform="matrix(1,0,0,1,911.2542114257812,318.0084533691406)" opacity="1" style="display: block;"><g opacity="1" transform="matrix(1,0,0,1,0,0)"><path stroke-linecap="round" stroke-linejoin="round" fill-opacity="0" stroke="#FFFFFF" stroke-opacity="1" stroke-width="4px" d=" M0.5,74 C0.5,74 0.5,113.5 0.5,113.5"></path></g></g><g transform="matrix(1,0,0,1,911.2542114257812,318.0084533691406)" opacity="1" style="display: block;"><g opacity="1" transform="matrix(1,0,0,1,0,0)"><path stroke-linecap="round" stroke-linejoin="round" fill-opacity="0" stroke="#FFFFFF" stroke-opacity="1" stroke-width="4px" d=" M0.5,74 C0.5,74 0.5,113.5 0.5,113.5"></path></g></g><g transform="matrix(1,0,0,1,931.5924682617188,374.4407958984375)" opacity="1" style="display: block;"><g opacity="1" transform="matrix(1,0,0,1,0,0)"><path stroke-linecap="round" stroke-linejoin="round" fill-opacity="0" stroke="#FFFFFF" stroke-opacity="1" stroke-width="4px" d=" M0.5,74 C0.5,74 0.5,113.5 0.5,113.5"></path></g></g><g transform="matrix(1,0,0,1,932.998291015625,432.3269348144531)" opacity="1" style="display: block;"><g opacity="1" transform="matrix(1,0,0,1,0,0)"><path stroke-linecap="round" stroke-linejoin="round" fill-opacity="0" stroke="#FFFFFF" stroke-opacity="1" stroke-width="4px" d=" M0.5,74 C0.5,74 0.5,113.5 0.5,113.5"></path></g></g><g transform="matrix(1,0,0,1,915.4503784179688,488.5084533691406)" opacity="1" style="display: block;"><g opacity="1" transform="matrix(1,0,0,1,0,0)"><path stroke-linecap="round" stroke-linejoin="round" fill-opacity="0" stroke="#FFFFFF" stroke-opacity="1" stroke-width="4px" d=" M0.5,74 C0.5,74 0.5,113.5 0.5,113.5"></path></g></g><g transform="matrix(1,0,0,1,880.6747436523438,541.4622192382812)" opacity="1" style="display: block;"><g opacity="1" transform="matrix(1,0,0,1,0,0)"><path stroke-linecap="round" stroke-linejoin="round" fill-opacity="0" stroke="#FFFFFF" stroke-opacity="1" stroke-width="4px" d=" M0.5,74 C0.5,74 0.5,113.5 0.5,113.5"></path></g></g><g transform="matrix(1,0,0,1,828.9453125,589.416015625)" opacity="1" style="display: block;"><g opacity="1" transform="matrix(1,0,0,1,0,0)"><path stroke-linecap="round" stroke-linejoin="round" fill-opacity="0" stroke="#FFFFFF" stroke-opacity="1" stroke-width="4px" d=" M0.5,74 C0.5,74 0.5,113.5 0.5,113.5"></path></g></g><g transform="matrix(1,0,0,1,762.806640625,629.0958251953125)" opacity="1" style="display: block;"><g opacity="1" transform="matrix(1,0,0,1,0,0)"><path stroke-linecap="round" stroke-linejoin="round" fill-opacity="0" stroke="#FFFFFF" stroke-opacity="1" stroke-width="4px" d=" M0.5,74 C0.5,74 0.5,113.5 0.5,113.5"></path></g></g><g transform="matrix(1,0,0,1,684.1234741210938,658.2311401367188)" opacity="1" style="display: block;"><g opacity="1" transform="matrix(1,0,0,1,0,0)"><path stroke-linecap="round" stroke-linejoin="round" fill-opacity="0" stroke="#FFFFFF" stroke-opacity="1" stroke-width="4px" d=" M0.5,74 C0.5,74 0.5,113.5 0.5,113.5"></path></g></g><g transform="matrix(1,0,0,1,597.6680297851562,677.0924682617188)" opacity="1" style="display: block;"><g opacity="1" transform="matrix(1,0,0,1,0,0)"><path stroke-linecap="round" stroke-linejoin="round" fill-opacity="0" stroke="#FFFFFF" stroke-opacity="1" stroke-width="4px" d=" M0.5,74 C0.5,74 0.5,113.5 0.5,113.5"></path></g></g><g transform="matrix(1,0,0,1,470.739013671875,592.363037109375)" opacity="1" style="display: block;"><g opacity="1" transform="matrix(1,0,0,1,0,0)"><path stroke-linecap="round" stroke-linejoin="round" fill-opacity="0" stroke="#FFFFFF" stroke-opacity="1" stroke-width="4px" d=" M0.5,74 C0.5,74 0.5,113.5 0.5,113.5"></path></g></g><g transform="matrix(1,0,0,1,400.67138671875,581.8151245117188)" opacity="1" style="display: block;"><g opacity="1" transform="matrix(1,0,0,1,0,0)"><path stroke-linecap="round" stroke-linejoin="round" fill-opacity="0" stroke="#FFFFFF" stroke-opacity="1" stroke-width="4px" d=" M0.5,74 C0.5,74 0.5,113.5 0.5,113.5"></path></g></g><g transform="matrix(1,0,0,1,335.9453430175781,559.7688598632812)" opacity="1" style="display: block;"><g opacity="1" transform="matrix(1,0,0,1,0,0)"><path stroke-linecap="round" stroke-linejoin="round" fill-opacity="0" stroke="#FFFFFF" stroke-opacity="1" stroke-width="4px" d=" M0.5,74 C0.5,74 0.5,113.5 0.5,113.5"></path></g></g><g transform="matrix(1,0,0,1,281.2655029296875,529.0394897460938)" opacity="1" style="display: block;"><g opacity="1" transform="matrix(1,0,0,1,0,0)"><path stroke-linecap="round" stroke-linejoin="round" fill-opacity="0" stroke="#FFFFFF" stroke-opacity="1" stroke-width="4px" d=" M0.5,74 C0.5,74 0.5,113.5 0.5,113.5"></path></g></g><g transform="matrix(1,0,0,1,240.81341552734375,489.6302185058594)" opacity="1" style="display: block;"><g opacity="1" transform="matrix(1,0,0,1,0,0)"><path stroke-linecap="round" stroke-linejoin="round" fill-opacity="0" stroke="#FFFFFF" stroke-opacity="1" stroke-width="4px" d=" M0.5,74 C0.5,74 0.5,113.5 0.5,113.5"></path></g></g><g transform="matrix(1,0,0,1,217.17982482910156,446.7655029296875)" opacity="1" style="display: block;"><g opacity="1" transform="matrix(1,0,0,1,0,0)"><path stroke-linecap="round" stroke-linejoin="round" fill-opacity="0" stroke="#FFFFFF" stroke-opacity="1" stroke-width="4px" d=" M0.5,74 C0.5,74 0.5,113.5 0.5,113.5"></path></g></g><g transform="matrix(1,0,0,1,210.7277374267578,399.9701232910156)" opacity="1" style="display: block;"><g opacity="1" transform="matrix(1,0,0,1,0,0)"><path stroke-linecap="round" stroke-linejoin="round" fill-opacity="0" stroke="#FFFFFF" stroke-opacity="1" stroke-width="4px" d=" M0.5,74 C0.5,74 0.5,113.5 0.5,113.5"></path></g></g><g transform="matrix(1,0,0,1,221.91262817382812,354.0840148925781)" opacity="1" style="display: block;"><g opacity="1" transform="matrix(1,0,0,1,0,0)"><path stroke-linecap="round" stroke-linejoin="round" fill-opacity="0" stroke="#FFFFFF" stroke-opacity="1" stroke-width="4px" d=" M0.5,74 C0.5,74 0.5,113.5 0.5,113.5"></path></g></g><g transform="matrix(1,0,0,1,251.46054077148438,311.1302185058594)" opacity="1" style="display: block;"><g opacity="1" transform="matrix(1,0,0,1,0,0)"><path stroke-linecap="round" stroke-linejoin="round" fill-opacity="0" stroke="#FFFFFF" stroke-opacity="1" stroke-width="4px" d=" M0.5,74 C0.5,74 0.5,113.5 0.5,113.5"></path></g></g><g transform="matrix(1,0,0,1,295.78070068359375,274.4041748046875)" opacity="1" style="display: block;"><g opacity="1" transform="matrix(1,0,0,1,0,0)"><path stroke-linecap="round" stroke-linejoin="round" fill-opacity="0" stroke="#FFFFFF" stroke-opacity="1" stroke-width="4px" d=" M0.5,74 C0.5,74 0.5,113.5 0.5,113.5"></path></g></g><g transform="matrix(1,0,0,1,353.10089111328125,246.4966278076172)" opacity="1" style="display: block;"><g opacity="1" transform="matrix(1,0,0,1,0,0)"><path stroke-linecap="round" stroke-linejoin="round" fill-opacity="0" stroke="#FFFFFF" stroke-opacity="1" stroke-width="4px" d=" M0.5,74 C0.5,74 0.5,113.5 0.5,113.5"></path></g></g><g transform="matrix(1,0,0,1,420.5563659667969,229.40756225585938)" opacity="1" style="display: block;"><g opacity="1" transform="matrix(1,0,0,1,0,0)"><path stroke-linecap="round" stroke-linejoin="round" fill-opacity="0" stroke="#FFFFFF" stroke-opacity="1" stroke-width="4px" d=" M0.5,74 C0.5,74 0.5,113.5 0.5,113.5"></path></g></g><g transform="matrix(1,0,0,1,492.17022705078125,223.5)" opacity="1" style="display: block;"><g opacity="1" transform="matrix(1,0,0,1,0,0)"><path stroke-linecap="round" stroke-linejoin="round" fill-opacity="0" stroke="#FFFFFF" stroke-opacity="1" stroke-width="4px" d=" M0.5,74 C0.5,74 0.5,113.5 0.5,113.5"></path></g></g><g transform="matrix(1,0,0,1,564.260986328125,228.00169372558594)" opacity="1" style="display: block;"><g opacity="1" transform="matrix(1,0,0,1,0,0)"><path stroke-linecap="round" stroke-linejoin="round" fill-opacity="0" stroke="#FFFFFF" stroke-opacity="1" stroke-width="4px" d=" M0.5,74 C0.5,74 0.5,113.5 0.5,113.5"></path></g></g><g transform="matrix(1,0,0,1,632.4869995117188,242.6848907470703)" opacity="1" style="display: block;"><g opacity="1" transform="matrix(1,0,0,1,0,0)"><path stroke-linecap="round" stroke-linejoin="round" fill-opacity="0" stroke="#FFFFFF" stroke-opacity="1" stroke-width="4px" d=" M0.5,74 C0.5,74 0.5,113.5 0.5,113.5"></path></g></g><g transform="matrix(1,0,0,1,692.0991821289062,268.414306640625)" opacity="1" style="display: block;"><g opacity="1" transform="matrix(1,0,0,1,0,0)"><path stroke-linecap="round" stroke-linejoin="round" fill-opacity="0" stroke="#FFFFFF" stroke-opacity="1" stroke-width="4px" d=" M0.5,74 C0.5,74 0.5,113.5 0.5,113.5"></path></g></g><g transform="matrix(1,0,0,1,740.3697509765625,304.8697814941406)" opacity="1" style="display: block;"><g opacity="1" transform="matrix(1,0,0,1,0,0)"><path stroke-linecap="round" stroke-linejoin="round" fill-opacity="0" stroke="#FFFFFF" stroke-opacity="1" stroke-width="4px" d=" M0.5,74 C0.5,74 0.5,113.5 0.5,113.5"></path></g></g><g transform="matrix(1,0,0,1,772.7987670898438,345.89288330078125)" opacity="1" style="display: block;"><g opacity="1" transform="matrix(1,0,0,1,0,0)"><path stroke-linecap="round" stroke-linejoin="round" fill-opacity="0" stroke="#FFFFFF" stroke-opacity="1" stroke-width="4px" d=" M0.5,74 C0.5,74 0.5,113.5 0.5,113.5"></path></g></g><g transform="matrix(1,0,0,1,787.5462036132812,390.8483581542969)" opacity="1" style="display: block;"><g opacity="1" transform="matrix(1,0,0,1,0,0)"><path stroke-linecap="round" stroke-linejoin="round" fill-opacity="0" stroke="#FFFFFF" stroke-opacity="1" stroke-width="4px" d=" M0.5,74 C0.5,74 0.5,113.5 0.5,113.5"></path></g></g><g transform="matrix(1,0,0,1,785.1798095703125,438.32525634765625)" opacity="1" style="display: block;"><g opacity="1" transform="matrix(1,0,0,1,0,0)"><path stroke-linecap="round" stroke-linejoin="round" fill-opacity="0" stroke="#FFFFFF" stroke-opacity="1" stroke-width="4px" d=" M0.5,74 C0.5,74 0.5,113.5 0.5,113.5"></path></g></g><g transform="matrix(1,0,0,1,765.01806640625,482.483642578125)" opacity="1" style="display: block;"><g opacity="1" transform="matrix(1,0,0,1,0,0)"><path stroke-linecap="round" stroke-linejoin="round" fill-opacity="0" stroke="#FFFFFF" stroke-opacity="1" stroke-width="4px" d=" M0.5,74 C0.5,74 0.5,113.5 0.5,113.5"></path></g></g><g transform="matrix(1,0,0,1,727.5609130859375,521.1189575195312)" opacity="1" style="display: block;"><g opacity="1" transform="matrix(1,0,0,1,0,0)"><path stroke-linecap="round" stroke-linejoin="round" fill-opacity="0" stroke="#FFFFFF" stroke-opacity="1" stroke-width="4px" d=" M0.5,74 C0.5,74 0.5,113.5 0.5,113.5"></path></g></g><g transform="matrix(1,0,0,1,675.7637939453125,553.3681030273438)" opacity="1" style="display: block;"><g opacity="1" transform="matrix(1,0,0,1,0,0)"><path stroke-linecap="round" stroke-linejoin="round" fill-opacity="0" stroke="#FFFFFF" stroke-opacity="1" stroke-width="4px" d=" M0.5,74 C0.5,74 0.5,113.5 0.5,113.5"></path></g></g><g transform="matrix(1,0,0,1,613.67138671875,577.6618041992188)" opacity="1" style="display: block;"><g opacity="1" transform="matrix(1,0,0,1,0,0)"><path stroke-linecap="round" stroke-linejoin="round" fill-opacity="0" stroke="#FFFFFF" stroke-opacity="1" stroke-width="4px" d=" M0.5,74 C0.5,74 0.5,113.5 0.5,113.5"></path></g></g><g transform="matrix(1,0,0,1,543.6251831054688,590.2508544921875)" opacity="1" style="display: block;"><g opacity="1" transform="matrix(1,0,0,1,0,0)"><path stroke-linecap="round" stroke-linejoin="round" fill-opacity="0" stroke="#FFFFFF" stroke-opacity="1" stroke-width="4px" d=" M0.5,74 C0.5,74 0.5,113.5 0.5,113.5"></path></g></g><g transform="matrix(1,0,0,1,437.7209777832031,489.3844299316406)" opacity="1" style="display: block;"><g opacity="1" transform="matrix(1,0,0,1,0,0)"><path stroke-linecap="round" stroke-linejoin="round" fill-opacity="0" stroke="#FFFFFF" stroke-opacity="1" stroke-width="4px" d=" M0.5,74 C0.5,74 0.5,113.5 0.5,113.5"></path></g></g><g transform="matrix(1,0,0,1,400.4041748046875,473.4058532714844)" opacity="1" style="display: block;"><g opacity="1" transform="matrix(1,0,0,1,0,0)"><path stroke-linecap="round" stroke-linejoin="round" fill-opacity="0" stroke="#FFFFFF" stroke-opacity="1" stroke-width="4px" d=" M0.5,74 C0.5,74 0.5,113.5 0.5,113.5"></path></g></g><g transform="matrix(1,0,0,1,372.85784912109375,449.888671875)" opacity="1" style="display: block;"><g opacity="1" transform="matrix(1,0,0,1,0,0)"><path stroke-linecap="round" stroke-linejoin="round" fill-opacity="0" stroke="#FFFFFF" stroke-opacity="1" stroke-width="4px" d=" M0.5,74 C0.5,74 0.5,113.5 0.5,113.5"></path></g></g><g transform="matrix(1,0,0,1,358.0445251464844,422.9504089355469)" opacity="1" style="display: block;"><g opacity="1" transform="matrix(1,0,0,1,0,0)"><path stroke-linecap="round" stroke-linejoin="round" fill-opacity="0" stroke="#FFFFFF" stroke-opacity="1" stroke-width="4px" d=" M0.5,74 C0.5,74 0.5,113.5 0.5,113.5"></path></g></g><g transform="matrix(1,0,0,1,357.16009521484375,394.72265625)" opacity="1" style="display: block;"><g opacity="1" transform="matrix(1,0,0,1,0,0)"><path stroke-linecap="round" stroke-linejoin="round" fill-opacity="0" stroke="#FFFFFF" stroke-opacity="1" stroke-width="4px" d=" M0.5,74 C0.5,74 0.5,113.5 0.5,113.5"></path></g></g><g transform="matrix(1,0,0,1,369.3895263671875,365.9504089355469)" opacity="1" style="display: block;"><g opacity="1" transform="matrix(1,0,0,1,0,0)"><path stroke-linecap="round" stroke-linejoin="round" fill-opacity="0" stroke="#FFFFFF" stroke-opacity="1" stroke-width="4px" d=" M0.5,74 C0.5,74 0.5,113.5 0.5,113.5"></path></g></g><g transform="matrix(1,0,0,1,394.8004455566406,341.81512451171875)" opacity="1" style="display: block;"><g opacity="1" transform="matrix(1,0,0,1,0,0)"><path stroke-linecap="round" stroke-linejoin="round" fill-opacity="0" stroke="#FFFFFF" stroke-opacity="1" stroke-width="4px" d=" M0.5,74 C0.5,74 0.5,113.5 0.5,113.5"></path></g></g><g transform="matrix(1,0,0,1,430.57440185546875,324.8844299316406)" opacity="1" style="display: block;"><g opacity="1" transform="matrix(1,0,0,1,0,0)"><path stroke-linecap="round" stroke-linejoin="round" fill-opacity="0" stroke="#FFFFFF" stroke-opacity="1" stroke-width="4px" d=" M0.5,74 C0.5,74 0.5,113.5 0.5,113.5"></path></g></g><g transform="matrix(1,0,0,1,472.9159851074219,316.6815185546875)" opacity="1" style="display: block;"><g opacity="1" transform="matrix(1,0,0,1,0,0)"><path stroke-linecap="round" stroke-linejoin="round" fill-opacity="0" stroke="#FFFFFF" stroke-opacity="1" stroke-width="4px" d=" M0.5,74 C0.5,74 0.5,113.5 0.5,113.5"></path></g></g><g transform="matrix(1,0,0,1,517.916015625,317.34161376953125)" opacity="1" style="display: block;"><g opacity="1" transform="matrix(1,0,0,1,0,0)"><path stroke-linecap="round" stroke-linejoin="round" fill-opacity="0" stroke="#FFFFFF" stroke-opacity="1" stroke-width="4px" d=" M0.5,74 C0.5,74 0.5,113.5 0.5,113.5"></path></g></g><g transform="matrix(1,0,0,1,561.279052734375,325.3201904296875)" opacity="1" style="display: block;"><g opacity="1" transform="matrix(1,0,0,1,0,0)"><path stroke-linecap="round" stroke-linejoin="round" fill-opacity="0" stroke="#FFFFFF" stroke-opacity="1" stroke-width="4px" d=" M0.5,74 C0.5,74 0.5,113.5 0.5,113.5"></path></g></g><g transform="matrix(1,0,0,1,598.5958251953125,341.3895263671875)" opacity="1" style="display: block;"><g opacity="1" transform="matrix(1,0,0,1,0,0)"><path stroke-linecap="round" stroke-linejoin="round" fill-opacity="0" stroke="#FFFFFF" stroke-opacity="1" stroke-width="4px" d=" M0.5,74 C0.5,74 0.5,113.5 0.5,113.5"></path></g></g><g transform="matrix(1,0,0,1,626.0941162109375,363.93572998046875)" opacity="1" style="display: block;"><g opacity="1" transform="matrix(1,0,0,1,0,0)"><path stroke-linecap="round" stroke-linejoin="round" fill-opacity="0" stroke="#FFFFFF" stroke-opacity="1" stroke-width="4px" d=" M0.5,74 C0.5,74 0.5,113.5 0.5,113.5"></path></g></g><g transform="matrix(1,0,0,1,641.3646850585938,391.27734375)" opacity="1" style="display: block;"><g opacity="1" transform="matrix(1,0,0,1,0,0)"><path stroke-linecap="round" stroke-linejoin="round" fill-opacity="0" stroke="#FFFFFF" stroke-opacity="1" stroke-width="4px" d=" M0.5,74 C0.5,74 0.5,113.5 0.5,113.5"></path></g></g><g transform="matrix(1,0,0,1,642.6353149414062,420.6634521484375)" opacity="1" style="display: block;"><g opacity="1" transform="matrix(1,0,0,1,0,0)"><path stroke-linecap="round" stroke-linejoin="round" fill-opacity="0" stroke="#FFFFFF" stroke-opacity="1" stroke-width="4px" d=" M0.5,74 C0.5,74 0.5,113.5 0.5,113.5"></path></g></g><g transform="matrix(1,0,0,1,630.1104736328125,447.93572998046875)" opacity="1" style="display: block;"><g opacity="1" transform="matrix(1,0,0,1,0,0)"><path stroke-linecap="round" stroke-linejoin="round" fill-opacity="0" stroke="#FFFFFF" stroke-opacity="1" stroke-width="4px" d=" M0.5,74 C0.5,74 0.5,113.5 0.5,113.5"></path></g></g><g transform="matrix(1,0,0,1,604.4949340820312,471.5941467285156)" opacity="1" style="display: block;"><g opacity="1" transform="matrix(1,0,0,1,0,0)"><path stroke-linecap="round" stroke-linejoin="round" fill-opacity="0" stroke="#FFFFFF" stroke-opacity="1" stroke-width="4px" d=" M0.5,74 C0.5,74 0.5,113.5 0.5,113.5"></path></g></g><g transform="matrix(1,0,0,1,568.6302490234375,488.5016784667969)" opacity="1" style="display: block;"><g opacity="1" transform="matrix(1,0,0,1,0,0)"><path stroke-linecap="round" stroke-linejoin="round" fill-opacity="0" stroke="#FFFFFF" stroke-opacity="1" stroke-width="4px" d=" M0.5,74 C0.5,74 0.5,113.5 0.5,113.5"></path></g></g><g transform="matrix(1,0,0,1,526.583984375,497.0462341308594)" opacity="1" style="display: block;"><g opacity="1" transform="matrix(1,0,0,1,0,0)"><path stroke-linecap="round" stroke-linejoin="round" fill-opacity="0" stroke="#FFFFFF" stroke-opacity="1" stroke-width="4px" d=" M0.5,74 C0.5,74 0.5,113.5 0.5,113.5"></path></g></g><g transform="matrix(1,0,0,1,481.5840148925781,497.9537658691406)" opacity="1" style="display: block;"><g opacity="1" transform="matrix(1,0,0,1,0,0)"><path stroke-linecap="round" stroke-linejoin="round" fill-opacity="0" stroke="#FFFFFF" stroke-opacity="1" stroke-width="4px" d=" M0.5,74 C0.5,74 0.5,113.5 0.5,113.5"></path></g></g></g></svg>